<svg xmlns="http://www.w3.org/2000/svg" width="114.293" height="91.435" viewBox="0 0 114.293 91.435">
  <path id="Icon_awesome-shoe-prints" data-name="Icon awesome-shoe-prints" d="M34.288,28.573H40V5.714H34.288a11.429,11.429,0,0,0,0,22.859ZM0,74.29A11.428,11.428,0,0,0,11.429,85.72h5.715V62.861H11.429A11.428,11.428,0,0,0,0,74.29ZM60.265,51.432a36.524,36.524,0,0,0-18.7,5.715c-4.427,2.925-7.951,5.715-18.7,5.715V85.72l10.274,2.852a72.98,72.98,0,0,0,14.342,2.688A62.123,62.123,0,0,0,64.9,90.152c19.551-4.2,26.534-13.5,26.534-21.576,0-11.429-15.033-17.144-31.17-17.144ZM87.759,1.284A62.057,62.057,0,0,0,70.333.177,73.108,73.108,0,0,0,55.991,2.862L45.717,5.714V28.573c10.751,0,14.276,2.789,18.7,5.715A36.524,36.524,0,0,0,83.123,40c16.137,0,31.17-5.715,31.17-17.144,0-8.076-6.983-17.376-26.534-21.575Z" transform="translate(0 0)"/>
</svg>
